<?xml version="1.0" encoding="UTF-8"?>
<svg width="364px" height="100px" viewBox="0 0 364 100" version="1.1" xmlns="http://www.w3.org/2000/svg" xmlns:xlink="http://www.w3.org/1999/xlink">
    <title>ic-header-discord</title>
    <g id="ic-header-discord" stroke="none" stroke-width="1" fill="none" fill-rule="evenodd">
        <path d="M77.6472051,0.449694238 C83.293366,0.449694238 87.8902405,5.04656867 87.9402065,10.6927297 L87.9402065,10.6927297 L87.9402065,99.5323246 L77.1475448,90.1886777 L71.1016556,84.6424487 L64.7060042,78.7464576 L67.3542036,87.8902405 L10.6927297,87.8902405 C5.04656867,87.8902405 0.449694238,83.293366 0.449694238,77.6472051 L0.449694238,77.6472051 L0.449694238,10.6927297 C0.449694238,5.04656867 5.04656867,0.449694238 10.6927297,0.449694238 L10.6927297,0.449694238 Z M36.4577269,23.5837191 C36.0751253,23.5799015 29.4681989,23.5913124 22.4847119,28.7804312 C22.4847119,28.7804312 15.2896041,41.7216321 15.2896041,57.6607945 C15.2896041,57.6607945 15.3179579,57.709401 15.3761358,57.798818 L15.4443096,57.9015498 C16.2917375,59.1555935 20.6968864,64.8942324 30.5292421,65.2056645 C30.5292421,65.2056645 31.6373337,63.887934 32.8333383,62.4117668 L33.1335806,62.0400951 C33.3843248,61.7287362 33.6351948,61.4146937 33.8769659,61.1084503 C27.5312806,59.2097413 25.1329113,55.2624252 25.1329113,55.2624252 C25.1329113,55.2624252 25.6325716,55.6121874 26.53196,56.1118477 C26.5819261,56.1118477 26.6318921,56.1618137 26.7318241,56.2117797 C26.8817222,56.3117118 27.0316203,56.3616778 27.1815184,56.4616099 C28.430669,57.1611342 29.6798197,57.7107605 30.8290383,58.1604547 C32.8776454,59.0098772 35.3259807,59.7593676 38.1740442,60.3089939 C41.9214962,61.0085183 46.3185065,61.2583484 51.115245,60.3589599 C53.4636483,59.9092657 55.8620175,59.2597073 58.3603189,58.2104208 C60.1091298,57.5608624 62.0578048,56.6115079 64.1064119,55.2624252 C64.1064119,55.2624252 61.6081106,59.3096734 55.0625611,61.1584163 C55.255978,61.3969638 55.4543863,61.6405027 55.6532776,61.8837732 L55.9514133,62.2478203 C57.1904587,63.7583655 58.3603189,65.1556984 58.3603189,65.1556984 C69.4028107,64.8059363 73.5999569,57.6108285 73.5999569,57.6607945 C73.5999569,42.0436353 66.6926241,29.3045316 66.4135399,28.796194 L66.4048491,28.7804312 C59.4698586,23.5913124 52.8172884,23.5799015 52.4319599,23.5837191 L52.4143617,23.5839645 L51.7148373,24.3834209 C60.2090618,26.9316882 64.1563779,30.6791402 64.1563779,30.6791402 C58.9599112,27.8810427 53.8633765,26.481994 49.116604,25.9323677 C45.5190501,25.5326395 42.0713942,25.6325716 39.0234666,26.0322998 C38.7236705,26.0322998 38.4738403,26.0822658 38.1740442,26.1322318 C36.4252333,26.3320959 32.178121,26.9316882 26.8317562,29.2800915 C25.8303537,29.7131304 25.0488539,30.0875286 24.542843,30.3397587 L24.3290633,30.4472666 C24.038343,30.5948226 23.8837606,30.6791402 23.8837606,30.6791402 L23.8837606,30.6791402 L23.8965779,30.6669972 C24.1531924,30.4259305 28.2711001,26.649622 36.9748595,24.1835568 L36.9748595,24.1835568 L36.4751993,23.5839645 L36.4751993,23.5839645 Z M53.3637162,42.0214282 C56.1618137,42.0214282 58.4602509,44.4697635 58.4602509,47.5176911 C58.4602509,50.5656187 56.2117797,53.013954 53.3637162,53.013954 C50.5656187,53.013954 48.2671815,50.5656187 48.2671815,47.5176911 C48.2671815,44.4697635 50.5156527,42.0214282 53.3637162,42.0214282 Z M35.1261166,42.0214282 C37.9741801,42.0214282 40.2726173,44.4697635 40.2226513,47.5176911 C40.2226513,50.5656187 37.9741801,53.013954 35.1261166,53.013954 C32.3280191,53.013954 30.0295819,50.5656187 30.0295819,47.5176911 C30.0295819,44.4697635 32.2780531,42.0214282 35.1261166,42.0214282 Z" id="Combined-Shape" fill="#FFFFFF" fill-rule="nonzero"></path>
        <path d="M264.199914,27.049966 C273.287987,27.049966 282.424885,31.9811884 282.633728,41.9401586 L282.637378,42.2896041 L282.637378,57.4293101 C282.637378,67.5724135 273.493595,72.6689481 264.299846,72.6689481 C255.162381,72.6689481 246.073739,67.6889018 245.866012,57.777072 L245.862382,57.4293101 L245.862382,42.2896041 C245.862382,32.0465687 255.006165,27.049966 264.199914,27.049966 Z M227.02519,27.049966 C232.471487,27.049966 239.017037,29.3484032 242.61459,37.2430354 L242.61459,37.2430354 L233.470808,40.9405214 C230.472846,35.4442585 220.579573,36.6934091 220.579573,42.189672 L220.579573,42.189672 L220.579573,57.4792761 C220.579573,62.8256409 230.622744,64.3246217 233.021113,58.1788005 L233.021113,58.1788005 L242.814455,62.6757429 C239.116969,69.8708507 232.421521,72.6189821 226.825326,72.6189821 C218.131237,72.6189821 209.337217,67.5724135 209.337217,57.4792761 L209.337217,57.4792761 L209.337217,42.189672 C209.337217,32.1964667 218.131237,27.049966 227.02519,27.049966 Z M189.450738,27 C194.797103,27 199.99357,28.4989808 204.590444,34.0951758 L204.590444,34.0951758 L197.245438,39.7413367 C192.598598,34.7947001 184.654,34.9945642 184.454136,40.1410649 C184.604034,42.2896041 186.902471,43.5387547 190.350127,44.2882451 C198.244759,45.7372599 206.139391,48.4853914 205.639731,59.3280191 C205.289969,67.9221756 196.246118,72.6189821 188.101656,72.6189821 C182.805257,72.6189821 177.159096,69.9208167 173.011916,64.5744519 L173.011916,64.5744519 L180.107091,57.9289704 C184.554068,63.3253012 194.347409,63.5751313 194.647205,58.8283588 C194.747137,56.3300575 190.699889,54.8810427 187.052369,54.3813825 C179.907227,53.2821299 173.411644,48.7352215 173.411644,40.290963 C173.411644,31.5968744 181.306276,27 189.450738,27 Z M133.638687,27.6495583 C142.532639,27.6495583 150.876966,32.1964667 150.827223,42.5894002 L150.827223,42.5894002 L150.827223,57.4792761 C150.827223,67.6723455 142.482673,72.1193219 133.588721,72.069772 L117,72.069772 L117,61.5265243 L133.988449,61.5265243 C137.835833,61.5265243 139.584644,59.5778492 139.584644,56.6798197 L139.584644,56.6798197 L139.584644,42.8392304 C139.584644,39.9412008 137.735901,38.1424239 133.988449,38.1424239 L133.988449,38.1424239 L128.092458,38.1424239 L128.092458,56.2301255 L117.049966,46.2868862 L117.049966,27.6495583 Z M345.594571,27.6495583 C354.488524,27.6495583 362.83285,32.1964667 362.83285,42.5894002 L362.83285,42.5894002 L362.83285,57.4792761 C362.83285,67.6723455 354.488524,72.1193219 345.594571,72.069772 L328.955884,72.069772 L328.955884,61.5265243 L345.944333,61.5265243 C349.791717,61.5265243 351.540528,59.5778492 351.540528,56.6798197 L351.540528,56.6798197 L351.540528,42.8392304 C351.540528,39.9412008 349.691785,38.1424239 345.944333,38.1424239 L345.944333,38.1424239 L340.048342,38.1424239 L340.048342,56.2301255 L329.00585,46.2868862 L329.00585,27.6495583 Z M306.321274,27.6995244 C315.465057,27.6995244 322.560233,31.8966706 322.810063,42.2896041 C322.810063,50.3402705 319.578773,54.9667339 314.395509,56.7375796 L314.115974,56.8297178 L326.207753,72.0693558 L312.217265,72.0693558 L301.924264,57.9789364 L299.925623,57.9789364 L299.925623,72.0693558 L288.583335,72.0693558 L288.583335,27.6995244 L306.321274,27.6995244 Z M168.065279,27.6495583 L168.065279,72.0193898 L156.872889,72.0193898 L156.872889,27.6495583 L168.065279,27.6495583 Z M264.050016,37.2930014 C260.631885,37.2930014 257.213755,38.9632243 257.060151,42.0704895 L257.054772,42.2896041 L257.054772,57.4293101 C257.054772,60.7270678 260.652326,62.2760147 264.24988,62.2760147 C267.718632,62.2760147 271.235155,60.699605 271.389732,57.6402026 L271.395022,57.4293101 L271.395022,42.2896041 C271.395022,38.8419483 267.697536,37.2930014 264.050016,37.2930014 Z M306.521138,38.1424239 L299.925623,38.1424239 L299.925623,48.2855273 L306.521138,48.2855273 C313.566348,48.2855273 313.566348,38.1424239 306.521138,38.1424239 Z" id="Combined-Shape" fill="#FFFFFF"></path>
    </g>
</svg>