<svg width="24" height="24" viewBox="0 0 24 24" fill="none" xmlns="http://www.w3.org/2000/svg">
<path d="M14.25 10.125H17.25M6.74999 10.125H9.74999M8.24999 8.62498V11.625M20.9276 9.25405L22.4606 17.1687C22.5575 17.7185 22.4766 18.2849 22.2296 18.7855C21.9827 19.2862 21.5826 19.6952 21.0874 19.9529C20.5922 20.2107 20.0278 20.3039 19.476 20.219C18.9242 20.1341 18.4139 19.8756 18.0191 19.4809L13.9687 14.9842M16.1267 5.22559L7.87541 5.24998C6.72925 5.25006 5.61973 5.65388 4.74165 6.39053C3.86356 7.12718 3.27301 8.1496 3.07367 9.2783L3.07447 9.27844L1.54031 17.1687C1.44341 17.7185 1.52429 18.2849 1.77122 18.7855C2.01815 19.2862 2.41826 19.6952 2.91344 19.9529C3.40861 20.2107 3.97308 20.3039 4.52485 20.219C5.07661 20.1341 5.58695 19.8756 5.98174 19.4809L10.0349 15L16.1267 14.9756C17.4196 14.9756 18.6596 14.462 19.5739 13.5477C20.4881 12.6335 21.0017 11.3935 21.0017 10.1006C21.0017 8.80766 20.4881 7.56768 19.5739 6.65344C18.6596 5.7392 17.4196 5.22559 16.1267 5.22559Z" stroke="#F2C94C" stroke-width="1.5" stroke-linecap="round" stroke-linejoin="round"/>
</svg>