<svg width="24" height="24" viewBox="0 0 24 24" fill="none" xmlns="http://www.w3.org/2000/svg">
<path d="M12 9.75V3.375C12 2.87772 11.8024 2.40081 11.4508 2.04917C11.0992 1.69754 10.6223 1.5 10.125 1.5C9.62771 1.5 9.15079 1.69754 8.79916 2.04917C8.44753 2.40081 8.24999 2.87772 8.24999 3.375V14.7437L6.19428 11.1831C6.07128 10.9697 5.90742 10.7825 5.71206 10.6324C5.51671 10.4823 5.29368 10.3722 5.05574 10.3083C4.81781 10.2445 4.56961 10.2281 4.32535 10.2602C4.08109 10.2923 3.84556 10.3723 3.6322 10.4955C3.41885 10.6186 3.23186 10.7827 3.08193 10.9781C2.93199 11.1736 2.82205 11.3967 2.75839 11.6347C2.69473 11.8727 2.67859 12.1209 2.7109 12.3652C2.74321 12.6094 2.82333 12.8449 2.94669 13.0581C5.99999 19.5 7.85785 21.75 12 21.75C12.9849 21.75 13.9602 21.556 14.8701 21.1791C15.7801 20.8022 16.6069 20.2497 17.3033 19.5533C17.9997 18.8569 18.5522 18.0301 18.9291 17.1201C19.306 16.2102 19.5 15.2349 19.5 14.25V10.5C19.5 10.0027 19.3024 9.52581 18.9508 9.17417C18.5992 8.82254 18.1223 8.625 17.625 8.625C17.1277 8.625 16.6508 8.82254 16.2992 9.17417C15.9475 9.52581 15.75 10.0027 15.75 10.5" stroke="#140152" stroke-width="1.5" stroke-linecap="round" stroke-linejoin="round"/>
<path d="M15.75 10.5V9.375C15.75 8.87772 15.5524 8.40081 15.2008 8.04917C14.8492 7.69754 14.3723 7.5 13.875 7.5C13.3777 7.5 12.9008 7.69754 12.5492 8.04917C12.1975 8.40081 12 8.87772 12 9.375V9.75" stroke="#140152" stroke-width="1.5" stroke-linecap="round" stroke-linejoin="round"/>
</svg>