<svg width="32" height="32" viewBox="0 0 32 32" fill="none" xmlns="http://www.w3.org/2000/svg">
<circle cx="16" cy="16" r="15" fill="black"/>
<path d="M13.0543 16.9791C12.587 18.2646 12.0024 19.55 11.5352 20.8355C11.0679 21.8874 10.6007 23.0555 10.2497 24.1037C10.2039 24.1489 10.1487 24.1832 10.0879 24.2041C10.0272 24.2251 9.96249 24.2321 9.89865 24.2248H7.5625C7.5625 24.1037 7.68354 23.9911 7.68354 23.8737C10.1371 18.1471 12.4745 12.3044 14.9292 6.57776C15.2803 5.87692 15.7475 5.52589 16.4483 5.75951C16.6137 5.80984 16.7641 5.9001 16.8864 6.02232C17.0086 6.14455 17.0989 6.29499 17.1492 6.46035C17.85 8.09687 18.5521 9.84958 19.2529 11.4849L23.8102 22.3534C23.9021 22.6962 23.9429 23.0506 23.9313 23.4053C23.9029 23.608 23.8231 23.8001 23.6994 23.9632C23.5758 24.1263 23.4124 24.255 23.2249 24.337C23.0373 24.4191 22.8319 24.4517 22.6282 24.4318C22.4245 24.412 22.2293 24.3403 22.0611 24.2236C21.5334 23.8628 21.0263 23.4728 20.542 23.0555C18.0885 21.0691 15.6337 19.199 13.2964 17.2127C13.1717 16.9791 13.1717 16.9791 13.0543 16.9791ZM16.0925 9.38356C15.3916 11.2537 14.6896 13.0064 13.8725 14.7591C13.7515 14.8802 13.8725 14.9927 13.9936 15.1102C15.7427 16.5118 17.4954 17.801 19.2529 19.2002C19.604 19.4338 19.9538 19.7849 20.3048 20.0185C18.8983 16.5118 17.4954 13.0064 16.0937 9.38356H16.0925Z" fill="white"/>
</svg>
