<svg width="32" height="32" viewBox="0 0 32 32" fill="none" xmlns="http://www.w3.org/2000/svg">
<path d="M2.00932 15.6384C2.00932 13.0419 2.01412 10.4454 2.003 7.84896C2.00164 7.54191 2.116 7.3631 2.36993 7.21731C4.28023 6.12042 6.18827 5.01972 8.09406 3.9152L12.2372 1.52299C13.0529 1.05161 13.864 0.572016 14.6869 0.113666C14.8216 0.0385909 15.0579 -0.0201398 15.1554 0.046981C15.2746 0.128703 15.3488 0.35055 15.3521 0.513612C15.3684 1.33029 15.3537 2.1475 15.3536 2.96456C15.3536 4.20831 15.3468 5.45217 15.3638 6.6957C15.3689 7.07642 15.2349 7.30241 14.8959 7.4944C12.8692 8.64253 10.8572 9.81584 8.83718 10.9757C8.6095 11.1065 8.50566 11.2714 8.50637 11.5424C8.51363 14.275 8.51363 17.0077 8.50637 19.7404C8.50566 20.0105 8.60117 20.1714 8.83396 20.305C11.1842 21.6542 13.531 23.0093 15.8744 24.3704C16.1353 24.5218 16.3493 24.5409 16.6262 24.3784C18.5344 23.2601 20.4488 22.1523 22.3693 21.0551C23.2391 20.556 22.985 20.5839 23.7724 21.0342C25.488 22.0149 27.1906 23.0181 28.9084 23.9948C29.3561 24.2493 29.2417 24.5908 28.8989 24.7873C25.3668 26.8111 21.8394 28.8432 18.3168 30.8833C17.7284 31.2229 17.1361 31.5563 16.5536 31.9057C16.3503 32.0276 16.1791 32.0329 15.973 31.9133C14.4991 31.058 13.0201 30.2109 11.5437 29.3596C8.78023 27.7658 6.01721 26.1713 3.25465 24.5761C2.94858 24.3995 2.6467 24.2151 2.3361 24.0469C2.09497 23.9161 1.99908 23.7363 2.00001 23.4551C2.00878 20.8495 2.00518 18.244 2.00518 15.6384L2.00932 15.6384Z" fill="#157CFF"/>
<path d="M30.4807 14.9426V21.8593C30.4807 21.9591 30.484 22.0593 30.4767 22.1589C30.4531 22.4829 30.2121 22.622 29.926 22.4621C29.1818 22.0462 28.4407 21.6248 27.7027 21.1981C26.5953 20.5595 25.4949 19.9085 24.3823 19.2793C24.1133 19.1272 24.0002 18.9517 24.0019 18.6341C24.0144 16.2833 24.0047 13.9324 24.0135 11.5814C24.0146 11.2948 23.9295 11.1114 23.6744 10.9657C22.1701 10.1073 20.6733 9.23567 19.1737 8.36888C18.593 8.03316 18.0133 7.69565 17.4295 7.36511C17.2508 7.26394 17.1827 7.12502 17.1831 6.92142C17.187 4.76113 17.1835 2.60106 17.1859 0.4405C17.1864 0.0286226 17.4374 -0.112102 17.7941 0.0938365C19.1292 0.864528 20.4636 1.63653 21.7972 2.40983C24.5526 4.00323 27.3093 5.59424 30.0675 7.18287C30.3768 7.36005 30.4911 7.56424 30.4891 7.91739C30.4755 10.2592 30.482 12.601 30.482 14.9429L30.4807 14.9426Z" fill="#3A52DD"/>
<path d="M14.6075 14.7723C14.6855 14.7037 14.7682 14.6398 14.8407 14.5659C15.9509 13.4323 17.0572 12.2948 18.1735 11.1672C18.2745 11.073 18.4049 11.0165 18.5427 11.0072C19.0033 10.9883 19.4652 10.9997 20.0112 10.9997C19.7082 11.3164 19.4582 11.5809 19.2049 11.842C18.1625 12.9156 17.1188 13.9879 16.0739 15.0587C15.9286 15.207 15.9223 15.305 16.0657 15.4642C17.4006 16.9469 18.7308 18.4337 20.0561 19.9249C20.1127 19.9882 20.1623 20.0578 20.2568 20.1771C19.7021 20.1771 19.2162 20.1866 18.7313 20.1684C18.6441 20.1651 18.5478 20.0598 18.4779 19.9818C17.2616 18.6244 16.0473 17.2653 14.8351 15.9044C14.7647 15.8255 14.6918 15.7488 14.5637 15.6102C14.5413 15.7404 14.5255 15.8717 14.5165 16.0035C14.5145 17.2831 14.5091 18.5629 14.5225 19.8424C14.5254 20.1157 14.4496 20.2217 14.1702 20.1897C13.9714 20.1681 13.7709 20.1679 13.5721 20.1892C13.2993 20.2172 13.2137 20.1236 13.2159 19.8427C13.2286 18.2092 13.222 16.5755 13.2219 14.9419C13.2219 13.7348 13.2284 12.5277 13.2165 11.3208C13.214 11.0702 13.2877 10.975 13.5395 10.9964C13.7475 11.0157 13.9569 11.0158 14.165 10.9967C14.4374 10.9695 14.5258 11.0625 14.5214 11.3422C14.5055 12.3584 14.5139 13.375 14.515 14.3915C14.515 14.5059 14.5272 14.6198 14.5338 14.734L14.6075 14.7723Z" fill="#3C54DF"/>
</svg>
