<!--
  - Copyright (c) 2024. Devtron Inc.
  -
  - Licensed under the Apache License, Version 2.0 (the "License");
  - you may not use this file except in compliance with the License.
  - You may obtain a copy of the License at
  -
  -     http://www.apache.org/licenses/LICENSE-2.0
  -
  - Unless required by applicable law or agreed to in writing, software
  - distributed under the License is distributed on an "AS IS" BASIS,
  - WITHOUT WARRANTIES OR CONDITIONS OF ANY KIND, either express or implied.
  - See the License for the specific language governing permissions and
  - limitations under the License.
  -->

<svg xmlns="http://www.w3.org/2000/svg" width="24px" height="24px" viewBox="0 0 24 24"><defs><style>.cls-1{fill:#aecbfa;}.cls-2{fill:#669df6;}.cls-3{fill:#4285f4;}.cls-4{fill:#fff;}</style></defs><title>Icon_24px_CloudStorage_Color</title><g data-name="Product Icons"><rect class="cls-1" x="2" y="4" width="20" height="7"/><rect class="cls-2" x="20" y="4" width="2" height="7"/><polygon class="cls-3" points="22 4 20 4 20 11 22 4"/><rect class="cls-2" x="2" y="4" width="2" height="7"/><rect class="cls-4" x="6" y="7" width="6" height="1"/><rect class="cls-4" x="15" y="6" width="3" height="3" rx="1.5"/><rect class="cls-1" x="2" y="13" width="20" height="7"/><rect class="cls-2" x="20" y="13" width="2" height="7"/><polygon class="cls-3" points="22 13 20 13 20 20 22 13"/><rect class="cls-2" x="2" y="13" width="2" height="7"/><rect class="cls-4" x="6" y="16" width="6" height="1"/><rect class="cls-4" x="15" y="15" width="3" height="3" rx="1.5"/></g></svg>