<svg width="32" height="32" viewBox="0 0 32 32" fill="none" xmlns="http://www.w3.org/2000/svg">
<path d="M6.94756 29.0457L0.385139 17.6788C0.13283 17.2418 0 16.7461 0 16.2415C0 15.7368 0.13283 15.2411 0.385139 14.8041L6.94756 3.43748C7.19991 3.00041 7.56287 2.63746 7.99995 2.38513C8.43703 2.1328 8.93284 1.99997 9.43753 2H22.5624C23.067 2.00001 23.5628 2.13286 23.9998 2.38519C24.4369 2.63752 24.7998 3.00044 25.0521 3.43748L31.6145 14.8041C31.8669 15.2411 31.9997 15.7369 31.9997 16.2416C31.9997 16.7463 31.8669 17.242 31.6145 17.6791L25.0521 29.0454C24.7998 29.4825 24.4369 29.8454 23.9998 30.0977C23.5628 30.3501 23.067 30.4829 22.5624 30.4829H9.43753C8.93284 30.483 8.43702 30.3502 7.99993 30.0978C7.56284 29.8455 7.19989 29.4828 6.94756 29.0457Z" fill="url(#paint0_linear_1473_189)"/>
<path opacity="0.07" d="M29.6222 21.1298L25.0523 29.0451C24.8 29.4822 24.4371 29.8451 24 30.0975C23.5629 30.3498 23.0671 30.4826 22.5624 30.4825H21.5067L10.5904 19.5661L12.0649 16.9471L10.5757 15.4576L12.3282 13.7101L21.3721 12.8789L29.6222 21.1298Z" fill="black"/>
<path d="M21.1746 12.8088H10.8157C10.6489 12.8088 10.5127 12.9453 10.5127 13.1123V15.2538C10.5127 15.4203 10.6492 15.5568 10.8157 15.5568H21.1746C21.3413 15.5568 21.4778 15.4203 21.4778 15.2538V13.1118C21.4778 12.9453 21.3416 12.8086 21.1748 12.8086M19.5708 14.8026C19.4066 14.8021 19.2493 14.7366 19.1332 14.6204C19.0172 14.5042 18.9519 14.3468 18.9516 14.1826C18.9515 14.1012 18.9675 14.0207 18.9986 13.9455C19.0297 13.8704 19.0753 13.8021 19.1328 13.7446C19.1903 13.687 19.2586 13.6414 19.3338 13.6103C19.4089 13.5792 19.4895 13.5633 19.5708 13.5633C19.9133 13.5633 20.1908 13.8391 20.1908 14.1826C20.1908 14.264 20.1748 14.3446 20.1436 14.4198C20.1125 14.4951 20.0668 14.5634 20.0092 14.621C19.9517 14.6786 19.8833 14.7242 19.8081 14.7554C19.7329 14.7865 19.6523 14.8026 19.5708 14.8026ZM21.1746 16.9253L10.8157 16.9258C10.6489 16.9258 10.5127 17.0623 10.5127 17.2293V19.3705C10.5127 19.537 10.6492 19.6738 10.8157 19.6738H21.1746C21.3413 19.6738 21.4778 19.537 21.4778 19.3705V17.2288C21.4778 17.0623 21.3413 16.9253 21.1746 16.9253ZM19.5708 18.9193C19.4066 18.9189 19.2492 18.8534 19.1331 18.7372C19.0171 18.621 18.9518 18.4635 18.9516 18.2993C18.9515 18.2179 18.9675 18.1374 18.9986 18.0622C19.0297 17.9871 19.0753 17.9188 19.1328 17.8613C19.1903 17.8037 19.2586 17.7581 19.3338 17.727C19.4089 17.6959 19.4895 17.68 19.5708 17.68C19.6543 17.6767 19.7376 17.6902 19.8156 17.7198C19.8937 17.7495 19.965 17.7946 20.0252 17.8524C20.0855 17.9103 20.1334 17.9797 20.1661 18.0565C20.1989 18.1334 20.2157 18.216 20.2157 18.2995C20.2157 18.383 20.1989 18.4657 20.1661 18.5425C20.1334 18.6194 20.0855 18.6888 20.0252 18.7466C19.965 18.8045 19.8937 18.8496 19.8156 18.8792C19.7376 18.9088 19.6543 18.9226 19.5708 18.9193Z" fill="white"/>
<defs>
<linearGradient id="paint0_linear_1473_189" x1="16" y1="2.00025" x2="16" y2="30.4387" gradientUnits="userSpaceOnUse">
<stop stop-color="#4387FD"/>
<stop offset="1" stop-color="#4683EA"/>
</linearGradient>
</defs>
</svg>
