<svg xmlns="http://www.w3.org/2000/svg" viewBox="0 0 522.911 587.36"><path d="M.163 287.043c0-47.658.088-95.317-.116-142.974-.025-5.636 2.074-8.918 6.735-11.594q52.595-30.2 105.066-60.61l76.047-43.909c14.972-8.652 29.86-17.455 44.964-25.868 2.473-1.378 6.81-2.456 8.6-1.224 2.187 1.5 3.549 5.572 3.61 8.565.3 14.99.03 29.99.028 44.987 0 22.829-.125 45.66.186 68.485.095 6.988-2.366 11.136-8.587 14.66-37.2 21.074-74.131 42.61-111.208 63.9-4.179 2.4-6.085 5.427-6.072 10.4q.2 75.237 0 150.474c-.013 4.959 1.74 7.911 6.013 10.364q64.707 37.146 129.227 74.62c4.788 2.78 8.716 3.13 13.8.148q52.536-30.792 105.414-61c15.965-9.161 11.3-8.648 25.754-.383 31.489 18 62.741 36.414 94.27 54.341 8.217 4.672 6.119 10.94-.174 14.546q-97.247 55.722-194.234 111.893c-10.8 6.232-21.671 12.352-32.364 18.766-3.731 2.237-6.873 2.335-10.656.139-27.054-15.7-54.2-31.247-81.3-46.874q-76.085-43.881-152.145-87.8c-5.618-3.242-11.159-6.626-16.86-9.714-4.426-2.4-6.186-5.7-6.169-10.862.161-47.825.095-95.65.095-143.475z" fill="#157cff"/><path d="M522.757 274.276v126.955c0 1.832.061 3.671-.072 5.5-.434 5.947-4.857 8.5-10.108 5.564q-20.49-11.451-40.809-23.2c-20.327-11.721-40.524-23.67-60.946-35.22-4.938-2.792-7.014-6.012-6.982-11.842.23-43.15.051-86.3.213-129.453.02-5.259-1.543-8.627-6.225-11.3-27.611-15.757-55.085-31.755-82.609-47.665-10.66-6.162-21.3-12.357-32.016-18.424-3.279-1.857-4.529-4.407-4.522-8.144.071-39.652.007-79.3.052-118.957.009-7.56 4.615-10.143 11.162-6.363q36.759 21.219 73.478 42.51 75.862 43.87 151.8 87.609c5.677 3.252 7.775 7 7.738 13.482-.249 42.983-.129 85.968-.129 128.953z" fill="#3a52dd"/><path d="M231.399 271.156c1.431-1.258 2.95-2.431 4.279-3.788 20.378-20.808 40.685-41.685 61.175-62.382a11.019 11.019 0 016.775-2.938c8.455-.347 16.933-.137 26.955-.137-5.562 5.813-10.15 10.668-14.8 15.46q-28.7 29.56-57.468 59.043c-2.668 2.721-2.783 4.52-.151 7.443q36.753 40.82 73.244 81.875c1.038 1.162 1.948 2.439 3.683 4.63-10.182 0-19.1.174-28-.16-1.6-.06-3.368-1.993-4.651-3.426q-33.488-37.371-66.864-74.84c-1.292-1.448-2.63-2.855-4.981-5.4a70.564 70.564 0 00-.866 7.219c-.037 23.488-.137 46.977.11 70.463.052 5.016-1.339 6.962-6.467 6.374a51.192 51.192 0 00-10.978-.008c-5.008.513-6.579-1.205-6.539-6.36.234-29.983.112-59.969.111-89.954 0-22.156.12-44.313-.1-66.466-.045-4.6 1.307-6.347 5.929-5.954a62.633 62.633 0 0011.481.006c5-.5 6.623 1.207 6.543 6.341-.292 18.653-.138 37.313-.118 55.97 0 2.1.224 4.191.344 6.286z" fill="#3c54df"/></svg>